<?xml version="1.0" encoding="UTF-8"?>
<svg xmlns="http://www.w3.org/2000/svg" xmlns:xlink="http://www.w3.org/1999/xlink" version="1.1" viewBox="0 0 655 275">
  <defs>
    <style>
      .cls-1, .cls-2, .cls-3 {
        fill: none;
      }

      .cls-2 {
        stroke-dasharray: 16 12;
        stroke-width: 4px;
      }

      .cls-2, .cls-3 {
        stroke: #eeff41;
        stroke-linejoin: round;
      }

      .cls-4 {
        isolation: isolate;
      }

      .cls-5 {
        clip-path: url(#clippath-1);
      }

      .cls-6 {
        clip-path: url(#clippath-2);
      }

      .cls-3 {
        stroke-width: 8px;
      }

      .cls-7 {
        fill: #93c47d;
      }

      .cls-8 {
        fill-opacity: 0;
        fill-rule: evenodd;
      }

      .cls-9 {
        clip-path: url(#clippath);
      }
    </style>
    <clipPath id="clippath">
      <rect class="cls-1" x="11.3" y="8.6" width="200" height="200"/>
    </clipPath>
    <clipPath id="clippath-1">
      <rect class="cls-1" x="227.3" y="8.6" width="200" height="200"/>
    </clipPath>
    <clipPath id="clippath-2">
      <rect class="cls-1" x="442.1" y="8.6" width="200" height="200"/>
    </clipPath>
  </defs>
  <!-- Generator: Adobe Illustrator 28.7.1, SVG Export Plug-In . SVG Version: 1.2.0 Build 142)  -->
  <g>
    <g id="Layer_1">
      <g>
        <path class="cls-8" d="M11.3,8.6h200v200H11.3V8.6Z"/>
        <g class="cls-9">
          <image class="cls-4" width="200" height="200" transform="translate(11.3 8.6)" xlink:href="fractal_insructions-1.png"/>
        </g>
        <path class="cls-8" d="M227.3,8.6h200v200h-200V8.6Z"/>
        <g class="cls-5">
          <image class="cls-4" width="200" height="200" transform="translate(227.3 8.6)" xlink:href="fractal_insructions-2.png"/>
        </g>
        <path class="cls-8" d="M442.1,8.6h200v200h-200V8.6Z"/>
        <g class="cls-6">
          <image class="cls-4" width="200" height="200" transform="translate(442.1 8.6)" xlink:href="fractal_insructions-3.png"/>
        </g>
        <path class="cls-8" d="M220.2-.6v241.4"/>
        <path class="cls-2" d="M220.2-.6v241.4"/>
        <path class="cls-8" d="M436.2-.2l1.1,240.1"/>
        <path class="cls-2" d="M435.2-.2l1.1,240.1"/>
        <path class="cls-8" d="M646.8,213.4H10.6"/>
        <path class="cls-3" d="M655.4,213.4H.4"/>
        <path class="cls-8" d="M49.6,205.8h136.2v23.8H49.6v-23.8Z"/>
        <path class="cls-7" d="M103.9,227.6h-3.3v-2.4c0-.9,0-1.7.2-2.2.2-.6.5-1,.9-1.5.5-.4,1-.8,1.8-1l.6,1.4c-.7.2-1.1.5-1.4.9-.3.4-.4.9-.4,1.5h1.6v3.3ZM109.4,227.6h-3.3v-2.4c0-1,0-1.7.2-2.2.2-.6.5-1,.9-1.5.5-.4,1-.8,1.7-1l.6,1.4c-.7.2-1.1.5-1.4.9-.3.4-.4.9-.4,1.5h1.6v3.3ZM120.5,237.8h-3.3v-12.4c-1.2,1.1-2.6,2-4.2,2.5v-3c.9-.3,1.8-.8,2.8-1.6,1-.8,1.7-1.7,2.1-2.8h2.7v17.2ZM131.4,220.6h3.3v2.4c0,.9,0,1.7-.2,2.2-.2.5-.5,1-.9,1.5-.5.4-1,.8-1.7,1l-.6-1.4c.7-.2,1.1-.5,1.4-.9.3-.4.4-.9.4-1.6h-1.6v-3.3ZM125.9,220.6h3.3v2.4c0,.9,0,1.7-.2,2.2-.2.5-.5,1-.9,1.5-.4.4-1,.8-1.7,1l-.6-1.4c.7-.2,1.1-.5,1.4-.9.3-.4.4-.9.4-1.6h-1.6v-3.3Z"/>
        <path class="cls-7" d="M97.6,266.8v-17h3.5v14.2h8.6v2.9h-12.1ZM119.3,262.8l3.3.6c-.4,1.2-1.1,2.1-2,2.8-.9.6-2,.9-3.4.9-2.2,0-3.8-.7-4.8-2.1-.8-1.1-1.2-2.6-1.2-4.3s.5-3.7,1.6-4.8c1.1-1.2,2.4-1.8,4.1-1.8s3.3.6,4.4,1.8c1.1,1.2,1.6,3.1,1.5,5.6h-8.2c0,1,.3,1.7.8,2.3.5.5,1.1.8,1.9.8s1-.1,1.3-.4c.4-.3.6-.7.8-1.4ZM119.5,259.5c0-.9-.3-1.7-.8-2.2-.5-.5-1-.8-1.7-.8s-1.3.3-1.8.8c-.5.5-.7,1.2-.7,2.1h4.9ZM124,254.3h1.8v-.9c0-1,.1-1.8.3-2.3.2-.5.6-.9,1.2-1.3.6-.3,1.4-.5,2.3-.5s1.9.1,2.8.4l-.5,2.3c-.5-.1-1-.2-1.5-.2s-.8.1-1,.3c-.2.2-.3.6-.3,1.3v.9h2.5v2.6h-2.5v9.9h-3.3v-9.9h-1.8v-2.6ZM139.2,254.3v2.6h-2.2v5c0,1,0,1.6,0,1.8,0,.2.1.3.3.4.2.1.3.2.6.2s.7-.1,1.3-.3l.3,2.5c-.8.3-1.6.5-2.6.5s-1.1,0-1.6-.3c-.5-.2-.8-.5-1-.8-.2-.3-.4-.8-.5-1.3,0-.4-.1-1.2-.1-2.3v-5.4h-1.5v-2.6h1.5v-2.5l3.3-1.9v4.4h2.2Z"/>
        <path class="cls-8" d="M265.4,205.8h136.2v23.8h-136.2v-23.8Z"/>
        <path class="cls-7" d="M319.6,227.6h-3.3v-2.4c0-.9,0-1.7.2-2.2.2-.6.5-1,.9-1.5.5-.4,1-.8,1.8-1l.6,1.4c-.7.2-1.1.5-1.4.9-.3.4-.4.9-.4,1.5h1.6v3.3ZM325.1,227.6h-3.3v-2.4c0-1,0-1.7.2-2.2.2-.6.5-1,.9-1.5s1-.8,1.7-1l.6,1.4c-.7.2-1.1.5-1.4.9-.3.4-.4.9-.4,1.5h1.6v3.3ZM338.9,234.7v3.1h-11.5c.1-1.2.5-2.2,1.1-3.3.6-1,1.9-2.4,3.7-4.1,1.5-1.4,2.4-2.3,2.7-2.8.5-.7.7-1.3.7-2s-.2-1.3-.6-1.7c-.4-.4-.9-.6-1.6-.6s-1.2.2-1.6.6c-.4.4-.6,1.1-.7,2l-3.3-.3c.2-1.8.8-3.1,1.8-3.9,1-.8,2.3-1.2,3.9-1.2s3,.5,4,1.4c1,.9,1.5,2,1.5,3.4s-.1,1.5-.4,2.2c-.3.7-.7,1.4-1.3,2.2-.4.5-1.1,1.2-2.2,2.2-1,.9-1.7,1.6-2,1.9-.3.3-.5.6-.7.9h6.5ZM347.2,220.6h3.3v2.4c0,.9,0,1.7-.2,2.2-.2.5-.5,1-.9,1.5-.5.4-1,.8-1.7,1l-.6-1.4c.7-.2,1.1-.5,1.4-.9.3-.4.4-.9.4-1.6h-1.6v-3.3ZM341.6,220.6h3.3v2.4c0,.9,0,1.7-.2,2.2-.2.5-.5,1-.9,1.5-.4.4-1,.8-1.7,1l-.6-1.4c.7-.2,1.1-.5,1.4-.9.3-.4.4-.9.4-1.6h-1.6v-3.3Z"/>
        <path class="cls-7" d="M297.2,266.8v-17.2h5.2l3.1,11.7,3.1-11.7h5.2v17.2h-3.2v-13.5l-3.4,13.5h-3.3l-3.4-13.5v13.5h-3.2ZM317.2,252.7v-3h3.3v3h-3.3ZM317.2,266.8v-12.5h3.3v12.5h-3.3ZM335.3,266.8h-3.1v-1.8c-.5.7-1.1,1.2-1.8,1.6-.7.3-1.4.5-2.1.5-1.4,0-2.7-.6-3.7-1.7-1-1.2-1.5-2.8-1.5-4.8s.5-3.7,1.5-4.8c1-1.1,2.3-1.7,3.8-1.7s2.6.6,3.6,1.7v-6.2h3.3v17.2ZM326.5,260.3c0,1.3.2,2.3.6,2.9.5.9,1.3,1.3,2.2,1.3s1.4-.3,1.9-1c.5-.6.8-1.6.8-2.9s-.3-2.5-.8-3.1c-.5-.6-1.2-.9-2-.9s-1.4.3-2,.9c-.5.6-.8,1.5-.8,2.8ZM349.9,266.8h-3.1v-1.8c-.5.7-1.1,1.2-1.8,1.6-.7.3-1.4.5-2.1.5-1.4,0-2.7-.6-3.7-1.7-1-1.2-1.5-2.8-1.5-4.8s.5-3.7,1.5-4.8c1-1.1,2.3-1.7,3.8-1.7s2.6.6,3.6,1.7v-6.2h3.3v17.2ZM341.1,260.3c0,1.3.2,2.3.6,2.9.5.9,1.3,1.3,2.2,1.3s1.4-.3,1.9-1c.5-.6.8-1.6.8-2.9s-.3-2.5-.8-3.1c-.5-.6-1.2-.9-2-.9s-1.4.3-2,.9c-.5.6-.8,1.5-.8,2.8ZM353.2,266.8v-17.2h3.3v17.2h-3.3ZM367,262.8l3.3.6c-.4,1.2-1.1,2.1-2,2.8-.9.6-2,.9-3.4.9-2.2,0-3.8-.7-4.8-2.1-.8-1.1-1.2-2.6-1.2-4.3s.5-3.7,1.6-4.8c1.1-1.2,2.4-1.8,4.1-1.8s3.3.6,4.4,1.8c1.1,1.2,1.6,3.1,1.5,5.6h-8.2c0,1,.3,1.7.8,2.3.5.5,1.1.8,1.9.8s1-.1,1.3-.4c.4-.3.6-.7.8-1.4ZM367.2,259.5c0-.9-.3-1.7-.8-2.2-.5-.5-1-.8-1.7-.8s-1.3.3-1.8.8c-.5.5-.7,1.2-.7,2.1h4.9Z"/>
        <path class="cls-8" d="M481.4,205.8h136.2v23.8h-136.2v-23.8Z"/>
        <path class="cls-7" d="M535.6,227.6h-3.3v-2.4c0-.9,0-1.7.2-2.2.2-.6.5-1,.9-1.5.5-.4,1-.8,1.8-1l.6,1.4c-.7.2-1.1.5-1.4.9-.3.4-.4.9-.4,1.5h1.6v3.3ZM541.1,227.6h-3.3v-2.4c0-1,0-1.7.2-2.2.2-.6.5-1,.9-1.5s1-.8,1.7-1l.6,1.4c-.7.2-1.1.5-1.4.9-.3.4-.4.9-.4,1.5h1.6v3.3ZM543.7,233.2l3.2-.4c.1.8.4,1.4.8,1.9.4.4,1,.6,1.6.6s1.2-.3,1.7-.8c.5-.5.7-1.2.7-2.1s-.2-1.5-.7-2c-.4-.5-1-.7-1.6-.7s-.9,0-1.5.2l.4-2.7c.9,0,1.6-.2,2-.6.5-.4.7-1,.7-1.6s-.2-1-.5-1.4-.8-.5-1.4-.5-1,.2-1.5.6c-.4.4-.6,1-.7,1.7l-3-.5c.2-1,.5-1.9,1-2.5.4-.6,1-1.1,1.8-1.5.8-.4,1.6-.5,2.6-.5,1.6,0,2.9.5,3.9,1.5.8.8,1.2,1.8,1.2,2.9,0,1.5-.8,2.7-2.5,3.6,1,.2,1.8.7,2.3,1.4.6.7.9,1.6.9,2.7,0,1.5-.6,2.8-1.7,3.9-1.1,1.1-2.5,1.6-4.1,1.6s-2.8-.4-3.9-1.3c-1-.9-1.6-2.1-1.8-3.5ZM563.2,220.6h3.3v2.4c0,.9,0,1.7-.2,2.2-.2.5-.5,1-.9,1.5-.5.4-1,.8-1.7,1l-.6-1.4c.7-.2,1.1-.5,1.4-.9.3-.4.4-.9.4-1.6h-1.6v-3.3ZM557.6,220.6h3.3v2.4c0,.9,0,1.7-.2,2.2-.2.5-.5,1-.9,1.5-.4.4-1,.8-1.7,1l-.6-1.4c.7-.2,1.1-.5,1.4-.9.3-.4.4-.9.4-1.6h-1.6v-3.3Z"/>
        <path class="cls-7" d="M520.6,266.8v-17.2h7.3c1.8,0,3.2.2,4,.5s1.5.9,2,1.7c.5.8.8,1.7.8,2.7s-.4,2.3-1.1,3.2-1.9,1.4-3.4,1.6c.8.4,1.4.9,1.8,1.4.5.5,1.2,1.4,2,2.8l2.1,3.4h-4.1l-2.5-3.7c-.9-1.3-1.5-2.2-1.8-2.5-.3-.3-.7-.6-1-.7-.4-.1-.9-.2-1.7-.2h-.7v7.2h-3.5ZM524,256.9h2.6c1.7,0,2.7,0,3.1-.2.4-.1.7-.4,1-.7.2-.3.4-.8.4-1.3s-.2-1.1-.5-1.4c-.3-.4-.7-.6-1.3-.7-.3,0-1.1,0-2.5,0h-2.7v4.4ZM537.8,252.7v-3h3.3v3h-3.3ZM537.8,266.8v-12.5h3.3v12.5h-3.3ZM544.2,267.6l3.8.5c0,.4.2.7.4.9.3.2.8.3,1.5.3s1.5-.1,1.9-.4c.3-.2.5-.4.7-.8,0-.3.1-.8.1-1.5v-1.8c-1,1.3-2.2,2-3.7,2s-3-.7-4-2.1c-.8-1.1-1.2-2.5-1.2-4.2s.5-3.7,1.5-4.8c1-1.1,2.3-1.7,3.8-1.7s2.8.7,3.8,2v-1.8h3.1v11.2c0,1.5-.1,2.6-.4,3.3-.2.7-.6,1.3-1,1.7-.4.4-1,.7-1.8,1-.7.2-1.7.4-2.8.4-2.1,0-3.6-.4-4.5-1.1s-1.3-1.6-1.3-2.8,0-.2,0-.4ZM547.2,260.3c0,1.3.3,2.3.8,2.9.5.6,1.1.9,1.9.9s1.5-.3,2-.9c.6-.6.8-1.6.8-2.8s-.3-2.2-.8-2.9-1.2-.9-2-.9-1.4.3-2,.9c-.5.6-.8,1.5-.8,2.8ZM562.5,249.6v6.3c1.1-1.2,2.3-1.9,3.8-1.9s1.4.1,2,.4c.6.3,1.1.6,1.4,1.1.3.4.5.9.6,1.5s.2,1.4.2,2.5v7.3h-3.3v-6.6c0-1.3,0-2.1-.2-2.5-.1-.4-.3-.6-.7-.8-.3-.2-.7-.3-1.2-.3s-1,.1-1.5.4c-.4.3-.7.7-1,1.2-.2.5-.3,1.3-.3,2.4v6.2h-3.3v-17.2h3.3ZM579.6,254.3v2.6h-2.2v5c0,1,0,1.6,0,1.8,0,.2.1.3.3.4.2.1.3.2.6.2s.7-.1,1.3-.3l.3,2.5c-.8.3-1.6.5-2.6.5s-1.1,0-1.6-.3c-.5-.2-.8-.5-1-.8-.2-.3-.4-.8-.5-1.3,0-.4-.1-1.2-.1-2.3v-5.4h-1.5v-2.6h1.5v-2.5l3.3-1.9v4.4h2.2Z"/>
      </g>
    </g>
  </g>
</svg>